# xmcd
#
# Track frame offsets:
#	150
#	11927
#	23776
#	36839
#	46601
#	57240
#	69351
#	82025
#	93357
#	106454
#	119181
#	132004
#	143187
#	155999
#	169333
#	180267
#	196325
#	212224
#	225795
#	240969
#	256663
#	268310
#	281702
#	293918
#	305864
#
# Disc length: 4235 seconds
#
# Revision: 1
# Processed by: cddbd v1.5.2PL0 Copyright (c) Steve Scherf et al.
# Submitted via: EZCDAudioConverter 5.0.0.1
#
DISCID=6c108919
DTITLE=Mel Tillis - Hitsides! 1970 - 1980
DYEAR=2006
DGENRE=Country
TTITLE0=Heaven Everyday
TTITLE1=The Arms Of A Fool
TTITLE2=Heart Over Mind
TTITLE3=I Ain't Never
TTITLE4=Neon Rose
TTITLE5=Sawmill
TTITLE6=Midnight, Me And The Blues
TTITLE7=Stomp Them Grapes
TTITLE8=Memory Maker
TTITLE9=Woman In The Back Of My Mind
TTITLE10=Good Woman Blues
TTITLE11=Heart Healer
TTITLE12=I Got The Hoss
TTITLE13=What Did I Promise Her Last Night
TTITLE14=I Believe In You
TTITLE15=Ain't No California
TTITLE16=Send Me Down To Tucson
TTITLE17=Charlie's Angel
TTITLE18=Coca Cola Cowboy
TTITLE19=Your Body Is An Outlaw
TTITLE20=Southern Rains
TTITLE21=Ruby, Don't Take Your Love To Town [Bonus Track]
TTITLE22=Mental Revenge [Bonus Track]
TTITLE23=Detroit City [Bonus Track]
TTITLE24=Burning Memories [Bonus Track]
EXTD=
EXTT0=
EXTT1=
EXTT2=
EXTT3=
EXTT4=
EXTT5=
EXTT6=
EXTT7=
EXTT8=
EXTT9=
EXTT10=
EXTT11=
EXTT12=
EXTT13=
EXTT14=
EXTT15=
EXTT16=
EXTT17=
EXTT18=
EXTT19=
EXTT20=
EXTT21=
EXTT22=
EXTT23=
EXTT24=
PLAYORDER=
